<svg width="273" height="26" viewBox="0 0 273 26" fill="none" xmlns="http://www.w3.org/2000/svg">
<g clip-path="url(#clip0_621_6836)">
<path d="M0.000244141 8.71716L14.8055 17.2828L0.0750182 26L0.000244141 8.71716Z" fill="#80D3F1"/>
<path d="M14.7307 0L14.8055 17.2828L0.000244141 8.7172L14.7307 0Z" fill="#757ABA"/>
<path d="M14.7307 0L29.536 8.5656L14.8055 17.2828L14.7307 0Z" fill="#81D3F2"/>
<path d="M29.5359 8.56555L29.6107 25.8484L14.8054 17.2828L29.5359 8.56555Z" fill="#34A6DE"/>
<path d="M54.8845 18.382L49.912 8.26242L46.2854 15.7289L54.8845 18.382ZM57.6511 24.105L44.1918 20.0875L42.2476 24.105H35.8918L46.6219 3.0321H53.2394L64.0069 24.105H57.5763H57.6511Z" fill="#2B3691"/>
<path d="M89.3178 19.1779V24.105H69.2783V3.0321H75.335V19.1779H89.3178Z" fill="#2B3691"/>
<path d="M103.637 24.105V11.8251L97.5805 7.95922V24.1429H103.637V24.105ZM88.9814 3.0321V7.95922H112.274V3.0321H88.9814Z" fill="#2B3691"/>
<path d="M124.2 3.0321H118.143V24.105H124.2V3.0321Z" fill="#2B3691"/>
<path d="M155.867 3.0321V14.175C155.867 20.5802 151.567 24.7872 143.791 24.7872C136.051 24.7872 131.715 20.5802 131.715 14.175V3.0321H137.771V13.6823C137.771 17.3586 139.79 19.7464 143.791 19.7464C147.791 19.7464 149.773 17.3586 149.773 13.6823V3.0321H155.867Z" fill="#2B3691"/>
<path d="M186.262 17.5102C186.262 21.8309 182.299 24.7872 174.747 24.7872C169.401 24.7872 164.914 23.309 161.662 20.656L164.84 16.8659C167.307 18.9883 170.709 20.1633 174.897 20.1633C178.448 20.1633 180.243 19.5189 180.243 18.1166C180.243 16.7522 178.598 16.2974 174.298 15.9563C168.13 15.4257 162.522 14.0233 162.522 9.32362C162.522 4.81341 167.344 2.34985 173.925 2.34985C178.374 2.34985 182.486 3.44898 185.328 5.49563L182.262 9.32362C179.944 7.65598 177.14 7.01166 173.925 6.97376C171.494 6.97376 168.541 7.35277 168.541 8.8688C168.541 10.2711 170.934 10.4606 174.672 10.7638C181.439 11.3324 186.262 12.6589 186.262 17.5102Z" fill="#2B3691"/>
<path d="M215.686 3.0321V24.1808H213.181V14.6677H196.02V24.1808H193.515V3.0321H196.02V12.242H213.181V3.0321H215.686Z" fill="#2B3691"/>
<path d="M244.212 3.0321V14.2129C244.212 20.3907 240.399 24.8251 233.221 24.8251C226.042 24.8251 222.191 20.3907 222.191 14.2129V3.0321H224.696V14.0613C224.696 19.2537 227.762 22.4374 233.221 22.4374C238.642 22.4374 241.707 19.2537 241.707 14.0613V3.0321H244.212Z" fill="#2B3691"/>
<path d="M270.421 18.1925C270.421 15.5773 268.289 14.5161 264.738 14.5161H253.185V21.8688H264.738C268.289 21.8688 270.421 20.8076 270.421 18.1925ZM253.185 12.2041H264.252C267.243 12.2041 269.336 11.4082 269.336 8.75514C269.336 6.10208 267.205 5.30616 264.252 5.30616H253.185V12.2041ZM273 18.382C273 22.2478 270.009 24.1808 265.149 24.1808H250.68V3.0321H264.551C268.813 3.0321 271.804 4.85135 271.804 8.41403C271.804 10.8397 270.421 13.0758 267.355 13.3032C270.607 13.5306 273 14.8572 273 18.382Z" fill="#2B3691"/>
</g>
<defs>
<clipPath id="clip0_621_6836">
<rect width="273" height="26" fill="white" transform="translate(0.000244141)"/>
</clipPath>
</defs>
</svg>
